<?xml version="1.0" standalone="no"?>
<!DOCTYPE svg PUBLIC "-//W3C//DTD SVG 20010904//EN"
 "http://www.w3.org/TR/2001/REC-SVG-20010904/DTD/svg10.dtd">
<svg version="1.0" xmlns="http://www.w3.org/2000/svg"
 width="144.000000pt" height="144.000000pt" viewBox="0 0 144.000000 144.000000"
 preserveAspectRatio="xMidYMid meet">
<metadata>
Created by potrace 1.14, written by Peter Selinger 2001-2017
</metadata>
<g transform="translate(0.000000,144.000000) scale(0.100000,-0.100000)"
fill="#000000" stroke="none">
<path d="M318 1373 c-22 -5 -32 -37 -19 -62 15 -28 15 -612 0 -644 -24 -53 33
-91 65 -45 14 20 14 24 1 45 -13 20 -15 68 -12 326 2 166 7 316 11 334 7 25 4
33 -10 40 -11 5 -27 8 -36 6z"/>
<path d="M416 1318 c-11 -16 -12 -26 -5 -40 16 -29 16 -437 0 -466 -27 -50 23
-93 62 -53 18 17 19 24 9 46 -16 35 -16 434 0 469 9 22 8 29 -7 46 -23 26 -40
25 -59 -2z"/>
<path d="M538 1289 c-19 -11 -24 -54 -8 -64 6 -3 10 -42 10 -85 0 -43 -4 -82
-10 -85 -5 -3 -10 -17 -10 -31 0 -31 41 -54 65 -34 17 14 20 56 5 65 -5 3 -10
42 -10 85 0 43 5 82 10 85 17 11 11 54 -9 65 -23 12 -22 12 -43 -1z"/>
<path d="M650 995 c-30 -19 -67 -35 -81 -35 -33 0 -52 -21 -47 -52 5 -35 59
-38 81 -5 16 25 99 77 122 77 21 0 99 -48 123 -75 26 -30 57 -32 72 -5 21 39
-1 67 -48 61 -7 -1 -39 14 -71 33 -32 20 -67 36 -77 36 -11 0 -44 -16 -74 -35z"/>
<path d="M940 891 c-14 -27 -3 -50 29 -57 26 -6 95 -39 119 -57 9 -7 12 -59
10 -220 l-3 -211 -55 -33 c-30 -18 -61 -31 -68 -28 -22 8 -52 -14 -52 -38 0
-46 50 -64 72 -26 7 11 43 38 81 60 l67 40 0 239 0 239 -54 30 c-30 17 -61 42
-70 56 -20 30 -61 33 -76 6z"/>
<path d="M650 865 c-30 -19 -66 -34 -81 -35 -31 0 -49 -17 -49 -47 0 -44 59
-52 81 -12 10 20 105 79 126 79 21 0 167 -91 189 -118 19 -24 24 -25 48 -14
18 8 26 19 26 36 0 29 -8 35 -48 40 -16 1 -68 26 -116 55 -49 28 -95 51 -104
50 -10 0 -42 -16 -72 -34z"/>
<path d="M633 713 l-93 -54 0 -109 0 -108 91 -51 c51 -28 96 -51 100 -51 5 0
37 18 73 39 35 22 74 41 87 43 19 2 24 9 24 33 0 25 -4 31 -27 33 -18 2 -30
-3 -37 -16 -11 -20 -103 -82 -122 -82 -6 0 -42 18 -80 41 l-70 40 3 81 3 82
71 43 72 43 54 -31 c30 -17 58 -41 64 -52 12 -30 59 -35 73 -8 15 27 4 50 -28
57 -29 6 -35 8 -111 51 l-55 31 -92 -55z"/>
<path d="M411 692 c-7 -13 -5 -32 5 -61 11 -32 13 -66 8 -135 -6 -86 -5 -95
13 -111 12 -9 37 -33 57 -51 41 -38 40 -38 67 -24 39 21 11 87 -34 78 -6 -1
-22 2 -34 6 -22 7 -23 12 -23 122 0 64 5 124 10 135 15 27 -4 59 -35 59 -13 0
-29 -8 -34 -18z"/>
<path d="M970 680 c-7 -14 -8 -26 0 -39 5 -11 10 -68 10 -128 l-1 -108 -127
-72 c-121 -68 -128 -71 -154 -57 -15 8 -32 23 -38 34 -14 26 -56 26 -70 0 -16
-30 4 -60 40 -60 16 0 44 -9 62 -20 l33 -19 148 85 147 85 0 110 c0 79 4 118
15 140 12 22 13 34 5 49 -14 26 -56 26 -70 0z"/>
<path d="M302 558 c-14 -14 -16 -40 -2 -54 5 -5 10 -49 12 -98 l3 -89 205
-118 204 -118 56 29 c30 16 67 31 82 35 43 8 49 67 8 80 -25 8 -46 -3 -58 -30
-6 -13 -28 -33 -50 -44 l-38 -19 -164 94 c-91 53 -175 102 -187 110 -20 13
-23 23 -23 84 0 38 5 72 10 75 16 10 12 62 -6 69 -24 9 -39 7 -52 -6z"/>
</g>
</svg>
